<svg xmlns="http://www.w3.org/2000/svg" width="375" height="812" viewBox="0 0 375 812">
  <!-- Background -->
  <rect width="375" height="812" fill="#0b0e11"/>

  <!-- Top nav -->
  <rect x="0" y="0" width="375" height="44" fill="#12161c"/>
  <line x1="0" y1="44" x2="375" y2="44" stroke="#1e2329"/>
  <!-- Brand -->
  <rect x="14" y="8" width="28" height="28" rx="6" fill="#2962ff"/>
  <text x="28" y="28" fill="white" font-family="Helvetica,sans-serif" font-size="14" font-weight="800" text-anchor="middle">O</text>
  <text x="50" y="28" fill="#eaecef" font-family="Helvetica,sans-serif" font-size="15" font-weight="700">Bot-Obsidian</text>
  <!-- Status -->
  <circle cx="300" cy="22" r="3.5" fill="#0ecb81"/>
  <text x="310" y="26" fill="#0ecb81" font-family="Helvetica,sans-serif" font-size="11" font-weight="600">Online</text>
  <rect x="344" y="14" width="20" height="16" rx="3" fill="#f0b90b"/>
  <text x="354" y="26" fill="#0b0e11" font-family="Helvetica,sans-serif" font-size="8" font-weight="700" text-anchor="middle">P</text>

  <!-- Tabs -->
  <rect x="0" y="45" width="375" height="34" fill="#12161c"/>
  <line x1="0" y1="79" x2="375" y2="79" stroke="#1e2329"/>
  <text x="47" y="67" fill="#2962ff" font-family="Helvetica,sans-serif" font-size="12" font-weight="600" text-anchor="middle">Overview</text>
  <line x1="20" y1="77" x2="74" y2="77" stroke="#2962ff" stroke-width="2"/>
  <text x="140" y="67" fill="#848e9c" font-family="Helvetica,sans-serif" font-size="12" font-weight="600" text-anchor="middle">Positions</text>
  <text x="234" y="67" fill="#848e9c" font-family="Helvetica,sans-serif" font-size="12" font-weight="600" text-anchor="middle">Signals</text>
  <text x="328" y="67" fill="#848e9c" font-family="Helvetica,sans-serif" font-size="12" font-weight="600" text-anchor="middle">Settings</text>

  <!-- PnL Strip - 4 cells -->
  <line x1="93" y1="80" x2="93" y2="130" stroke="#1e2329"/>
  <line x1="187" y1="80" x2="187" y2="130" stroke="#1e2329"/>
  <line x1="281" y1="80" x2="281" y2="130" stroke="#1e2329"/>
  <line x1="0" y1="130" x2="375" y2="130" stroke="#1e2329"/>

  <!-- Equity -->
  <text x="47" y="96" fill="#5e6673" font-family="Helvetica,sans-serif" font-size="10" text-anchor="middle">EQUITY</text>
  <text x="47" y="114" fill="#eaecef" font-family="Helvetica,sans-serif" font-size="16" font-weight="700" text-anchor="middle">$12,847</text>
  <text x="47" y="126" fill="#848e9c" font-family="Helvetica,sans-serif" font-size="10" text-anchor="middle">Peak $13,100</text>

  <!-- Daily PnL -->
  <text x="140" y="96" fill="#5e6673" font-family="Helvetica,sans-serif" font-size="10" text-anchor="middle">DAILY P&amp;L</text>
  <text x="140" y="114" fill="#0ecb81" font-family="Helvetica,sans-serif" font-size="16" font-weight="700" text-anchor="middle">+$847</text>
  <text x="140" y="126" fill="#0ecb81" font-family="Helvetica,sans-serif" font-size="10" text-anchor="middle">+7.05%</text>

  <!-- Positions count -->
  <text x="234" y="96" fill="#5e6673" font-family="Helvetica,sans-serif" font-size="10" text-anchor="middle">POSITIONS</text>
  <text x="234" y="114" fill="#eaecef" font-family="Helvetica,sans-serif" font-size="16" font-weight="700" text-anchor="middle">3 / 4</text>
  <text x="234" y="126" fill="#848e9c" font-family="Helvetica,sans-serif" font-size="10" text-anchor="middle">$9,630 margin</text>

  <!-- Win rate -->
  <text x="328" y="96" fill="#5e6673" font-family="Helvetica,sans-serif" font-size="10" text-anchor="middle">WIN RATE</text>
  <text x="328" y="114" fill="#eaecef" font-family="Helvetica,sans-serif" font-size="16" font-weight="700" text-anchor="middle">68%</text>
  <text x="328" y="126" fill="#848e9c" font-family="Helvetica,sans-serif" font-size="10" text-anchor="middle">47 trades</text>

  <!-- Drawdown bar -->
  <text x="14" y="148" fill="#5e6673" font-family="Helvetica,sans-serif" font-size="11">Drawdown</text>
  <rect x="90" y="139" width="210" height="6" rx="3" fill="#161a21"/>
  <rect x="90" y="139" width="48" height="6" rx="3" fill="#0ecb81"/>
  <text x="320" y="148" fill="#eaecef" font-family="Helvetica,sans-serif" font-size="11" font-weight="600" text-anchor="end">3.4% / 15%</text>
  <line x1="0" y1="156" x2="375" y2="156" stroke="#1e2329"/>

  <!-- Market Strip -->
  <text x="14" y="175" fill="#848e9c" font-family="Helvetica,sans-serif" font-size="12" font-weight="700">MARKET</text>
  <rect x="54" y="166" width="24" height="14" rx="3" fill="rgba(41,98,255,0.1)"/>
  <text x="66" y="176" fill="#2962ff" font-family="Helvetica,sans-serif" font-size="9" font-weight="600" text-anchor="middle">Live</text>

  <!-- Market grid 4 cells -->
  <rect x="0" y="184" width="93" height="64" fill="#0b0e11" stroke="#1e2329"/>
  <rect x="94" y="184" width="93" height="64" fill="#0b0e11" stroke="#1e2329"/>
  <rect x="188" y="184" width="93" height="64" fill="#0b0e11" stroke="#1e2329"/>
  <rect x="282" y="184" width="93" height="64" fill="#0b0e11" stroke="#1e2329"/>

  <text x="47" y="202" fill="#eaecef" font-family="Helvetica,sans-serif" font-size="11" font-weight="700" text-anchor="middle">BTC</text>
  <text x="47" y="220" fill="#0ecb81" font-family="Helvetica,sans-serif" font-size="14" font-weight="700" text-anchor="middle">85,342</text>
  <text x="47" y="233" fill="#0ecb81" font-family="Helvetica,sans-serif" font-size="11" font-weight="600" text-anchor="middle">+2.4%</text>
  <text x="47" y="244" fill="#0ecb81" font-family="Helvetica,sans-serif" font-size="9" text-anchor="middle">TREND UP</text>

  <text x="140" y="202" fill="#eaecef" font-family="Helvetica,sans-serif" font-size="11" font-weight="700" text-anchor="middle">ETH</text>
  <text x="140" y="220" fill="#f6465d" font-family="Helvetica,sans-serif" font-size="14" font-weight="700" text-anchor="middle">1,892</text>
  <text x="140" y="233" fill="#f6465d" font-family="Helvetica,sans-serif" font-size="11" font-weight="600" text-anchor="middle">-1.2%</text>
  <text x="140" y="244" fill="#f6465d" font-family="Helvetica,sans-serif" font-size="9" text-anchor="middle">TREND DN</text>

  <text x="234" y="202" fill="#eaecef" font-family="Helvetica,sans-serif" font-size="11" font-weight="700" text-anchor="middle">SOL</text>
  <text x="234" y="220" fill="#0ecb81" font-family="Helvetica,sans-serif" font-size="14" font-weight="700" text-anchor="middle">143.87</text>
  <text x="234" y="233" fill="#0ecb81" font-family="Helvetica,sans-serif" font-size="11" font-weight="600" text-anchor="middle">+1.8%</text>
  <text x="234" y="244" fill="#f0b90b" font-family="Helvetica,sans-serif" font-size="9" text-anchor="middle">VOLATILE</text>

  <text x="328" y="202" fill="#eaecef" font-family="Helvetica,sans-serif" font-size="11" font-weight="700" text-anchor="middle">ADA</text>
  <text x="328" y="220" fill="#848e9c" font-family="Helvetica,sans-serif" font-size="14" font-weight="700" text-anchor="middle">0.6234</text>
  <text x="328" y="233" fill="#848e9c" font-family="Helvetica,sans-serif" font-size="11" font-weight="600" text-anchor="middle">+0.1%</text>
  <text x="328" y="244" fill="#5e6673" font-family="Helvetica,sans-serif" font-size="9" text-anchor="middle">RANGE</text>

  <!-- Positions Section -->
  <text x="14" y="270" fill="#848e9c" font-family="Helvetica,sans-serif" font-size="12" font-weight="700">ACTIVE POSITIONS</text>
  <rect x="130" y="260" width="44" height="14" rx="3" fill="rgba(41,98,255,0.1)"/>
  <text x="152" y="270" fill="#2962ff" font-family="Helvetica,sans-serif" font-size="9" font-weight="600" text-anchor="middle">3 Open</text>

  <!-- BTC Position -->
  <rect x="14" y="280" width="347" height="108" rx="8" fill="#12161c" stroke="#1e2329"/>
  <!-- Header -->
  <rect x="14" y="280" width="347" height="30" rx="8" fill="#161a21"/>
  <rect x="14" y="302" width="347" height="8" fill="#161a21"/>
  <circle cx="30" cy="295" r="4" fill="#f7931a"/>
  <text x="42" y="299" fill="#eaecef" font-family="Helvetica,sans-serif" font-size="14" font-weight="700">BTC/USDT</text>
  <rect x="304" y="287" width="48" height="16" rx="4" fill="rgba(14,203,129,0.1)"/>
  <text x="328" y="299" fill="#0ecb81" font-family="Helvetica,sans-serif" font-size="10" font-weight="700" text-anchor="middle">LONG 25x</text>
  <!-- Body grid -->
  <text x="57" y="327" fill="#5e6673" font-family="Helvetica,sans-serif" font-size="9" text-anchor="middle">ENTRY</text>
  <text x="57" y="341" fill="#eaecef" font-family="Helvetica,sans-serif" font-size="13" font-weight="600" text-anchor="middle">84,230</text>
  <text x="144" y="327" fill="#5e6673" font-family="Helvetica,sans-serif" font-size="9" text-anchor="middle">MARK</text>
  <text x="144" y="341" fill="#0ecb81" font-family="Helvetica,sans-serif" font-size="13" font-weight="600" text-anchor="middle">85,342</text>
  <text x="231" y="327" fill="#5e6673" font-family="Helvetica,sans-serif" font-size="9" text-anchor="middle">STOP</text>
  <text x="231" y="341" fill="#eaecef" font-family="Helvetica,sans-serif" font-size="13" font-weight="600" text-anchor="middle">83,100</text>
  <text x="318" y="327" fill="#5e6673" font-family="Helvetica,sans-serif" font-size="9" text-anchor="middle">SIZE</text>
  <text x="318" y="341" fill="#eaecef" font-family="Helvetica,sans-serif" font-size="13" font-weight="600" text-anchor="middle">0.038</text>
  <!-- Footer -->
  <line x1="24" y1="352" x2="351" y2="352" stroke="#1e2329"/>
  <rect x="14" y="356" width="347" height="32" rx="0" fill="#161a21"/>
  <rect x="14" y="380" width="347" height="8" rx="8" fill="#161a21"/>
  <text x="28" y="376" fill="#0ecb81" font-family="Helvetica,sans-serif" font-size="16" font-weight="800">+$412.80</text>
  <text x="348" y="376" fill="#0ecb81" font-family="Helvetica,sans-serif" font-size="13" font-weight="700" text-anchor="end">+12.8%</text>

  <!-- ETH Position -->
  <rect x="14" y="396" width="347" height="108" rx="8" fill="#12161c" stroke="#1e2329"/>
  <rect x="14" y="396" width="347" height="30" rx="8" fill="#161a21"/>
  <rect x="14" y="418" width="347" height="8" fill="#161a21"/>
  <circle cx="30" cy="411" r="4" fill="#627eea"/>
  <text x="42" y="415" fill="#eaecef" font-family="Helvetica,sans-serif" font-size="14" font-weight="700">ETH/USDT</text>
  <rect x="296" y="403" width="56" height="16" rx="4" fill="rgba(246,70,93,0.1)"/>
  <text x="324" y="415" fill="#f6465d" font-family="Helvetica,sans-serif" font-size="10" font-weight="700" text-anchor="middle">SHORT 25x</text>
  <text x="57" y="443" fill="#5e6673" font-family="Helvetica,sans-serif" font-size="9" text-anchor="middle">ENTRY</text>
  <text x="57" y="457" fill="#eaecef" font-family="Helvetica,sans-serif" font-size="13" font-weight="600" text-anchor="middle">1,920.4</text>
  <text x="144" y="443" fill="#5e6673" font-family="Helvetica,sans-serif" font-size="9" text-anchor="middle">MARK</text>
  <text x="144" y="457" fill="#0ecb81" font-family="Helvetica,sans-serif" font-size="13" font-weight="600" text-anchor="middle">1,892.4</text>
  <text x="231" y="443" fill="#5e6673" font-family="Helvetica,sans-serif" font-size="9" text-anchor="middle">STOP</text>
  <text x="231" y="457" fill="#eaecef" font-family="Helvetica,sans-serif" font-size="13" font-weight="600" text-anchor="middle">1,985.0</text>
  <text x="318" y="443" fill="#5e6673" font-family="Helvetica,sans-serif" font-size="9" text-anchor="middle">SIZE</text>
  <text x="318" y="457" fill="#eaecef" font-family="Helvetica,sans-serif" font-size="13" font-weight="600" text-anchor="middle">1.670</text>
  <line x1="24" y1="468" x2="351" y2="468" stroke="#1e2329"/>
  <rect x="14" y="472" width="347" height="32" rx="0" fill="#161a21"/>
  <rect x="14" y="496" width="347" height="8" rx="8" fill="#161a21"/>
  <text x="28" y="492" fill="#0ecb81" font-family="Helvetica,sans-serif" font-size="16" font-weight="800">+$215.40</text>
  <text x="348" y="492" fill="#0ecb81" font-family="Helvetica,sans-serif" font-size="13" font-weight="700" text-anchor="end">+6.7%</text>

  <!-- Signals Section -->
  <text x="14" y="528" fill="#848e9c" font-family="Helvetica,sans-serif" font-size="12" font-weight="700">RECENT SIGNALS</text>

  <!-- Signal 1 -->
  <rect x="14" y="536" width="347" height="74" rx="8" fill="#12161c" stroke="#1e2329"/>
  <text x="28" y="555" fill="#eaecef" font-family="Helvetica,sans-serif" font-size="13" font-weight="700">BTC</text>
  <rect x="56" y="544" width="36" height="14" rx="3" fill="rgba(14,203,129,0.1)"/>
  <text x="74" y="554" fill="#0ecb81" font-family="Helvetica,sans-serif" font-size="9" font-weight="700" text-anchor="middle">LONG</text>
  <text x="340" y="555" fill="#5e6673" font-family="Helvetica,sans-serif" font-size="10" text-anchor="end">14:32 UTC</text>
  <!-- Strength bar -->
  <rect x="28" y="562" width="319" height="3" rx="2" fill="#161a21"/>
  <rect x="28" y="562" width="278" height="3" rx="2" fill="#2962ff"/>
  <text x="28" y="580" fill="#848e9c" font-family="Helvetica,sans-serif" font-size="11">Strength: 87%</text>
  <text x="340" y="580" fill="#848e9c" font-family="Helvetica,sans-serif" font-size="11" text-anchor="end">TREND_UP</text>
  <!-- Filter tags -->
  <rect x="28" y="586" width="42" height="14" rx="3" fill="rgba(14,203,129,0.1)"/>
  <text x="49" y="596" fill="#0ecb81" font-family="Helvetica,sans-serif" font-size="8" font-weight="600" text-anchor="middle">OI +2.1%</text>
  <rect x="74" y="586" width="52" height="14" rx="3" fill="rgba(14,203,129,0.1)"/>
  <text x="100" y="596" fill="#0ecb81" font-family="Helvetica,sans-serif" font-size="8" font-weight="600" text-anchor="middle">FR 0.012%</text>
  <rect x="130" y="586" width="48" height="14" rx="3" fill="rgba(14,203,129,0.1)"/>
  <text x="154" y="596" fill="#0ecb81" font-family="Helvetica,sans-serif" font-size="8" font-weight="600" text-anchor="middle">L/S 52/48</text>
  <rect x="182" y="586" width="44" height="14" rx="3" fill="rgba(14,203,129,0.1)"/>
  <text x="204" y="596" fill="#0ecb81" font-family="Helvetica,sans-serif" font-size="8" font-weight="600" text-anchor="middle">Liq Safe</text>
  <rect x="230" y="586" width="36" height="14" rx="3" fill="rgba(14,203,129,0.1)"/>
  <text x="248" y="596" fill="#0ecb81" font-family="Helvetica,sans-serif" font-size="8" font-weight="600" text-anchor="middle">FnG 42</text>

  <!-- Signal 2 (rejected) -->
  <rect x="14" y="618" width="347" height="74" rx="8" fill="#12161c" stroke="#1e2329"/>
  <text x="28" y="637" fill="#eaecef" font-family="Helvetica,sans-serif" font-size="13" font-weight="700">ADA</text>
  <rect x="56" y="626" width="36" height="14" rx="3" fill="rgba(14,203,129,0.1)"/>
  <text x="74" y="636" fill="#0ecb81" font-family="Helvetica,sans-serif" font-size="9" font-weight="700" text-anchor="middle">LONG</text>
  <text x="340" y="637" fill="#5e6673" font-family="Helvetica,sans-serif" font-size="10" text-anchor="end">14:00 UTC</text>
  <rect x="28" y="644" width="319" height="3" rx="2" fill="#161a21"/>
  <rect x="28" y="644" width="198" height="3" rx="2" fill="#f0b90b"/>
  <text x="28" y="662" fill="#848e9c" font-family="Helvetica,sans-serif" font-size="11">Strength: 62%</text>
  <text x="340" y="662" fill="#f6465d" font-family="Helvetica,sans-serif" font-size="11" font-weight="600" text-anchor="end">REJECTED</text>
  <rect x="28" y="668" width="42" height="14" rx="3" fill="rgba(14,203,129,0.1)"/>
  <text x="49" y="678" fill="#0ecb81" font-family="Helvetica,sans-serif" font-size="8" font-weight="600" text-anchor="middle">OI +0.3%</text>
  <rect x="74" y="668" width="50" height="14" rx="3" fill="rgba(246,70,93,0.1)"/>
  <text x="99" y="678" fill="#f6465d" font-family="Helvetica,sans-serif" font-size="8" font-weight="600" text-anchor="middle">FR 0.08%</text>
  <rect x="128" y="668" width="52" height="14" rx="3" fill="rgba(246,70,93,0.1)"/>
  <text x="154" y="678" fill="#f6465d" font-family="Helvetica,sans-serif" font-size="8" font-weight="600" text-anchor="middle">L/S 68/32</text>

  <!-- Activity -->
  <text x="14" y="714" fill="#848e9c" font-family="Helvetica,sans-serif" font-size="12" font-weight="700">ACTIVITY</text>

  <!-- Alert 1 -->
  <rect x="18" y="722" width="3" height="24" rx="2" fill="#0ecb81"/>
  <text x="28" y="733" fill="#5e6673" font-family="Helvetica,sans-serif" font-size="10">14:32 UTC</text>
  <text x="28" y="745" fill="#eaecef" font-family="Helvetica,sans-serif" font-size="12"><tspan font-weight="700">BTC</tspan> Breakout LONG @ 84,230 | margin $3,210</text>
  <line x1="14" y1="751" x2="361" y2="751" stroke="#1e2329"/>

  <!-- Alert 2 -->
  <rect x="18" y="756" width="3" height="24" rx="2" fill="#f0b90b"/>
  <text x="28" y="767" fill="#5e6673" font-family="Helvetica,sans-serif" font-size="10">14:00 UTC</text>
  <text x="28" y="779" fill="#eaecef" font-family="Helvetica,sans-serif" font-size="12"><tspan font-weight="700">ADA</tspan> Signal rejected: Funding + L/S crowded</text>
  <line x1="14" y1="785" x2="361" y2="785" stroke="#1e2329"/>

  <!-- Alert 3 -->
  <rect x="18" y="790" width="3" height="18" rx="2" fill="#0ecb81"/>
  <text x="28" y="800" fill="#5e6673" font-family="Helvetica,sans-serif" font-size="10">13:30 UTC</text>
  <text x="28" y="812" fill="#eaecef" font-family="Helvetica,sans-serif" font-size="12"><tspan font-weight="700">ETH</tspan> FLIP: LONG +$180 → SHORT @ 1,920</text>
</svg>
